<?xml version="1.0" standalone="no"?>
<!DOCTYPE svg PUBLIC "-//W3C//DTD SVG 20010904//EN"
 "http://www.w3.org/TR/2001/REC-SVG-20010904/DTD/svg10.dtd">
<svg version="1.0" xmlns="http://www.w3.org/2000/svg"
 width="700.000000pt" height="700.000000pt" viewBox="0 0 700.000000 700.000000"
 preserveAspectRatio="xMidYMid meet">
<metadata>
Created by potrace 1.14, written by Peter Selinger 2001-2017
</metadata>
<g transform="translate(0.000000,700.000000) scale(0.100000,-0.100000)"
fill="#000000" stroke="none">
<path d="M3425 6083 c-91 -27 -164 -107 -181 -198 -13 -71 -8 -4744 5 -4792
26 -95 131 -181 227 -187 134 -9 257 83 280 209 4 22 7 1104 7 2405 0 2349 0
2365 -20 2411 -29 65 -75 113 -134 139 -65 27 -120 31 -184 13z"/>
<path d="M4565 5200 c-62 -28 -113 -80 -138 -141 l-22 -55 0 -1510 1 -1509 21
-47 c55 -122 207 -190 318 -144 18 8 36 12 38 10 3 -3 29 19 59 48 96 94 88
-57 88 1649 0 1659 4 1545 -67 1628 -50 59 -103 83 -188 87 -50 1 -81 -3 -110
-16z"/>
<path d="M2258 4626 c-88 -31 -154 -98 -177 -181 -8 -28 -11 -315 -11 -956 l0
-917 31 -61 c48 -96 125 -144 229 -145 110 0 196 54 243 154 21 45 21 48 22
975 0 1043 4 982 -73 1060 -68 69 -181 99 -264 71z"/>
<path d="M1149 4345 c-2 -2 -17 -5 -34 -7 -79 -10 -174 -93 -198 -174 -9 -32
-12 -198 -12 -676 l1 -633 23 -48 c96 -198 368 -201 473 -5 l23 43 0 655 0
655 -23 43 c-43 81 -118 134 -208 146 -23 3 -43 3 -45 1z"/>
<path d="M5749 4330 c-65 -24 -113 -66 -146 -125 l-28 -50 0 -655 0 -655 23
-42 c89 -168 304 -198 428 -61 71 79 68 43 69 746 0 476 -3 644 -12 676 -16
55 -78 125 -136 154 -60 30 -139 35 -198 12z"/>
</g>
</svg>
